<?xml version="1.0" encoding="utf-8"?>
<!-- Generator: Adobe Illustrator 17.0.0, SVG Export Plug-In . SVG Version: 6.00 Build 0)  -->
<!DOCTYPE svg PUBLIC "-//W3C//DTD SVG 1.1//EN" "http://www.w3.org/Graphics/SVG/1.1/DTD/svg11.dtd">
<svg version="1.1" id="Layer_1" xmlns="http://www.w3.org/2000/svg" xmlns:xlink="http://www.w3.org/1999/xlink" x="0px" y="0px"
	 width="1200px" height="1200px" viewBox="0 0 1200 1200" enable-background="new 0 0 1200 1200" xml:space="preserve">
<g>
	<path fill="#8CD1E9" d="M812.959,805.916c-53.875,55.706-129.346,90.393-212.96,90.393c-163.638,0-296.302-132.666-296.302-296.304
		c0-163.649,132.664-296.314,296.302-296.314c4.162,0,8.268,0.143,12.376,0.323c-0.395-8.843,1.363-17.721,5.344-25.163
		c2.635-4.951,5.398-9.811,8.286-14.582c-8.591-0.663-17.254-1.111-26.007-1.111c-186.022,0-336.819,150.815-336.819,336.846
		c0,186.022,150.797,336.837,336.819,336.837c100.689,0,190.991-44.246,252.705-114.264
		C837.495,823.349,822.842,816.427,812.959,805.916z"/>
	<path fill="#3EBDDD" d="M599.999,215.236c-182.595,0-335.384,127.249-374.769,297.865c1.273-0.037,2.529-0.108,3.873-0.055
		c14.421,0.681,28.481,2.529,42.399,5.399C308,370.912,441.204,261.526,599.999,261.526c186.92,0,338.47,151.552,338.47,338.479
		c0,186.936-151.55,338.47-338.47,338.47c-24.498,0-48.369-2.656-71.381-7.605c-4.34,14.779-8.07,29.791-11.442,44.874
		c26.705,5.846,54.378,9.021,82.823,9.021c212.495,0,384.76-172.266,384.76-384.76C984.759,387.502,812.495,215.236,599.999,215.236
		z"/>
	<path fill="#00A0DC" d="M574.908,979.725c-198.505-12.931-355.526-177.952-355.526-379.72
		c0-110.165,46.847-209.329,121.636-278.826c-12.43-12.072-24.213-24.698-35.117-38.454
		c-85.21,79.039-138.584,191.886-138.584,317.28c0,234.679,186.865,425.579,419.911,432.378
		C582.836,1014.895,578.818,997.319,574.908,979.725z"/>
	<path fill="#00A0DC" d="M976.851,422.565c-1.758,2.349-3.767,4.626-6.206,6.779c-7.425,6.547-14.959,11.998-22.599,16.571
		c20.913,47.117,32.588,99.217,32.588,154.09c0,132.198-67.418,248.615-169.719,316.839c0.233,0.376,0.52,0.7,0.753,1.06
		c6.709,11.028,18.617,17.629,28.141,26.077c3.64,3.229,6.511,6.617,8.698,10.132C959.866,875.826,1032.7,746.462,1032.7,600.005
		c0-65.094-14.492-126.773-40.211-182.158C987.288,419.588,982.087,421.2,976.851,422.565z"/>
	<path fill="#008EC8" d="M195.745,452.247C256.007,287.37,414.266,169.68,599.999,169.68c43.188,0,84.834,6.439,124.165,18.277
		c5.326-19.82,12.573-38.507,25.737-53.644c-47.26-15.192-97.603-23.478-149.902-23.478c-213.498,0-394.929,136.81-461.682,327.494
		C157.149,444.194,176.339,448.409,195.745,452.247z"/>
	<path fill="#A3D9EE" d="M1074.847,482.396c-18.222,8.285-36.678,16.141-54.63,24.966c6.546,29.844,10.097,60.817,10.097,92.643
		c0,237.656-192.657,430.315-430.315,430.315c-80.365,0-155.55-22.097-219.919-60.459c-1.219,4.52-3.21,9.146-6.206,13.899
		c-0.286,0.466-0.645,0.896-0.949,1.363c-2.529,11.998-9.846,19.98-19.28,24.608c-2.529,2.815-5.148,5.559-7.748,8.34
		c74.072,45.106,161.056,71.094,254.102,71.094c270.174,0,489.16-219.006,489.16-489.16
		C1089.159,559.445,1084.138,520.076,1074.847,482.396z"/>
	<path fill="#007BBC" d="M1062.902,740.598c20.984,8.375,40.766,18.599,60.011,29.86c17.504-53.679,27.082-110.927,27.082-170.453
		C1149.995,296.248,903.747,50,599.999,50C462.33,50,336.571,100.703,240.08,184.316c15.352,15.765,30.167,32.176,44.872,48.657
		c84.654-72.744,194.668-116.793,315.046-116.793c267.232,0,483.834,216.62,483.834,483.825
		C1083.833,648.93,1076.424,696.1,1062.902,740.598z"/>
	<path fill="#005EA6" d="M609.004,1142.986c-0.323-1.291-0.647-2.582-0.88-3.982c-1.488-11.102-2.924-20.786-2.545-29.916
		c-0.127-8.34,0.197-16.751,0.626-25.414c-2.097,0.018-4.125,0.143-6.206,0.143c-267.195,0-483.814-216.6-483.814-483.814
		c0-114.883,40.121-220.358,107.001-303.325c-14.744-16.841-29.666-33.449-45.304-49.161
		C98.071,342.969,50.005,465.86,50.005,600.005C50.005,903.769,296.235,1150,599.999,1150c2.817,0,5.596-0.18,8.413-0.217
		C608.609,1147.524,608.86,1145.264,609.004,1142.986z"/>
</g>
</svg>
